<?xml version="1.0" encoding="utf-8"?>
<!-- Generator: Adobe Illustrator 19.0.0, SVG Export Plug-In . SVG Version: 6.00 Build 0)  -->
<svg version="1.1" id="Layer_1" xmlns="http://www.w3.org/2000/svg" xmlns:xlink="http://www.w3.org/1999/xlink" x="0px" y="0px"
	 viewBox="-483 485 40 40" style="enable-background:new -483 485 40 40;" xml:space="preserve">
<style type="text/css">
	.st0{fill:#848484;}
</style>
<g id="XMLID_5_">
	<path id="XMLID_17_" class="st0" d="M-462.9,524.9c5.9,0,11.2-2.7,14.9-6.7c3.1-3.5,5-8.2,5-13.2c-0.1-10.9-9-20-20-20s-20,9-20,20
		c0,5,1.9,9.6,5,13.2C-474.1,522.3-468.8,524.9-462.9,524.9z M-462.9,492c4.8,0,8.7,3.9,8.7,8.7s-3.9,8.7-8.7,8.7s-8.7-3.9-8.7-8.7
		S-467.7,492-462.9,492z M-462.9,510.1c5.6,0,10.7,2.9,14.3,7.3c-3.5,4-8.6,6.6-14.3,6.6s-10.8-2.6-14.3-6.6
		C-473.6,512.9-468.5,510.1-462.9,510.1z"/>
</g>
</svg>
